<?xml version="1.0" encoding="UTF-8"?><svg id="a" xmlns="http://www.w3.org/2000/svg" viewBox="0 0 150 150"><defs><style>.b{fill:none;}</style></defs><path class="b" d="M0,0H150V150H0V0Z"/><path d="M113.2,19.91l-25.9,38.43c-1.79,2.62,1.65,5.79,4.13,3.58l25.48-22.18c.69-.55,1.65-.14,1.65,.83V109.86c0,.96-1.24,1.38-1.79,.69L39.64,18.25c-2.48-3.03-6.06-4.68-10.06-4.68h-2.76c-7.16,0-13.09,5.92-13.09,13.22V124.33c0,7.3,5.92,13.22,13.22,13.22,4.55,0,8.82-2.34,11.3-6.34l25.9-38.43c1.79-2.62-1.65-5.79-4.13-3.58l-25.48,22.04c-.69,.55-1.65,.14-1.65-.83V41.26c0-.96,1.24-1.38,1.79-.69l77.14,92.3c2.48,3.03,6.2,4.68,10.06,4.68h2.76c7.3,0,13.22-5.92,13.22-13.22V26.79c-.14-7.3-6.06-13.22-13.36-13.22-4.55,0-8.82,2.34-11.3,6.34Z"/></svg>